<?xml version="1.0" encoding="UTF-8"?>
<!DOCTYPE svg PUBLIC "-//W3C//DTD SVG 1.1//EN" "http://www.w3.org/Graphics/SVG/1.1/DTD/svg11.dtd">
<svg xmlns="http://www.w3.org/2000/svg" version="1.1" width="1080px" height="1080px" style="shape-rendering:geometricPrecision; text-rendering:geometricPrecision; image-rendering:optimizeQuality; fill-rule:evenodd; clip-rule:evenodd" xmlns:xlink="http://www.w3.org/1999/xlink">
<g><path style="opacity:1" fill="#fefefe" d="M -0.5,-0.5 C 359.5,-0.5 719.5,-0.5 1079.5,-0.5C 1079.5,359.5 1079.5,719.5 1079.5,1079.5C 719.5,1079.5 359.5,1079.5 -0.5,1079.5C -0.5,719.5 -0.5,359.5 -0.5,-0.5 Z"/></g>
<g><path style="opacity:1" fill="#48c6cb" d="M 729.5,217.5 C 717.94,208.611 705.607,200.944 692.5,194.5C 742.827,145.007 793.327,95.6733 844,46.5C 844.667,47.1667 844.667,47.8333 844,48.5C 805.328,104.516 767.162,160.849 729.5,217.5 Z"/></g>
<g><path style="opacity:1" fill="#39a881" d="M 692.5,194.5 C 705.607,200.944 717.94,208.611 729.5,217.5C 787.071,261.58 822.571,319.58 836,391.5C 850.48,468.748 839.48,542.081 803,611.5C 760.525,682.693 698.358,726.193 616.5,742C 564.287,751.127 512.62,748.961 461.5,735.5C 446.368,731.012 431.702,725.345 417.5,718.5C 344.586,681.065 297.086,622.732 275,543.5C 254.161,463.892 261.161,386.892 296,312.5C 342.022,227.688 413.189,178.854 509.5,166C 573.307,157.998 634.307,167.498 692.5,194.5 Z"/></g>
<g><path style="opacity:1" fill="#fefefe" d="M 661.5,224.5 C 574.062,310.104 486.728,395.937 399.5,482C 450.66,491.36 501.993,500.194 553.5,508.5C 516.058,567.068 478.392,625.402 440.5,683.5C 419.688,662.578 403.854,638.245 393,610.5C 374.335,558.841 365.501,505.508 366.5,450.5C 366.2,409.027 371.7,368.36 383,328.5C 392.985,292.851 409.985,261.184 434,233.5C 478.617,188.295 532.117,172.795 594.5,187C 620.187,193.835 642.52,206.335 661.5,224.5 Z"/></g>
<g><path style="opacity:1" fill="#46c6cb" d="M 661.5,224.5 C 675.311,237.143 686.978,251.476 696.5,267.5C 665.595,311.1 635.261,355.267 605.5,400C 644.188,406.027 682.854,412.193 721.5,418.5C 641.148,516.57 560.815,614.57 480.5,712.5C 465.389,705.278 452.055,695.612 440.5,683.5C 478.392,625.402 516.058,567.068 553.5,508.5C 501.993,500.194 450.66,491.36 399.5,482C 486.728,395.937 574.062,310.104 661.5,224.5 Z"/></g>
<g><path style="opacity:1" fill="#fefefe" d="M 696.5,267.5 C 715.88,302.473 728.38,339.807 734,379.5C 743.306,445.094 740.306,510.094 725,574.5C 715.614,610.27 699.614,642.603 677,671.5C 637.831,715.898 588.664,734.731 529.5,728C 512.069,725.91 495.736,720.743 480.5,712.5C 560.815,614.57 641.148,516.57 721.5,418.5C 682.854,412.193 644.188,406.027 605.5,400C 635.261,355.267 665.595,311.1 696.5,267.5 Z"/></g>
<g><path style="opacity:1" fill="#48c6cb" d="M 417.5,718.5 C 431.702,725.345 446.368,731.012 461.5,735.5C 381.581,833.653 301.414,931.653 221,1029.5C 222.066,1026.03 223.733,1022.7 226,1019.5C 289.333,920.833 352.667,822.167 416,723.5C 417.009,721.975 417.509,720.308 417.5,718.5 Z"/></g>
</svg>
