<?xml version="1.0" encoding="utf-8"?>
<svg xmlns="http://www.w3.org/2000/svg" viewBox="-355.153 -252.013 1047.617 755.203" style="shape-rendering: geometricprecision;" xmlns:bx="https://boxy-svg.com" width="1047.617px" height="755.203px"><defs><bx:export><bx:file format="svg"/></bx:export></defs><g transform="matrix(1, 0, 0, 1, -371.305702, -410.680856)"><path style="opacity: 1; fill-rule: evenodd;" fill="#49c6cb" d="M 418.5,291.5 C 409.301,284.734 399.634,278.734 389.5,273.5C 428.102,237.066 466.269,200.066 504,162.5C 504.667,163.167 504.667,163.833 504,164.5C 474.861,206.46 446.361,248.793 418.5,291.5 Z"/></g><g transform="matrix(1, 0, 0, 1, -371.305702, -410.680856)"><path style="opacity: 1; fill: rgb(0, 157, 101);" d="M 389.5,273.5 C 399.634,278.734 409.301,284.734 418.5,291.5C 468.246,330.97 496.079,382.636 502,446.5C 506.777,495.412 498.11,541.745 476,585.5C 439.005,649.284 383.505,684.784 309.5,692C 278.353,694.671 247.686,692.171 217.5,684.5C 205.597,681.059 193.93,676.726 182.5,671.5C 126.693,642.965 90.5268,598.299 74,537.5C 57.1682,474.164 63.8349,413.497 94,355.5C 132.024,292.2 188.191,257.367 262.5,251C 306.798,247.873 349.132,255.373 389.5,273.5 Z"/></g><g transform="matrix(1, 0, 0, 1, -371.305702, -410.680856)"><path style="opacity: 1; fill: rgb(255, 240, 176);" d="M 366.5,296.5 C 300.367,361.799 234.033,426.966 167.5,492C 206.478,498.774 245.478,505.441 284.5,512C 256.281,556.28 227.947,600.446 199.5,644.5C 183.231,628.688 171.065,610.022 163,588.5C 149.245,550.219 142.745,510.719 143.5,470C 141.934,421.154 152.101,374.988 174,331.5C 211.5,270.773 264.333,251.606 332.5,274C 345.444,279.289 356.777,286.789 366.5,296.5 Z"/></g><g transform="matrix(1, 0, 0, 1, -371.305702, -410.680856)"><path style="opacity:1" fill="#47c6cb" d="M 366.5,296.5 C 376.843,306.189 385.51,317.189 392.5,329.5C 369.501,362.519 346.834,395.852 324.5,429.5C 353.462,434.352 382.462,439.019 411.5,443.5C 350.81,517.852 290.143,592.186 229.5,666.5C 218.072,661.066 208.072,653.733 199.5,644.5C 227.947,600.446 256.281,556.28 284.5,512C 245.478,505.441 206.478,498.774 167.5,492C 234.033,426.966 300.367,361.799 366.5,296.5 Z"/></g><g transform="matrix(1, 0, 0, 1, -371.305702, -410.680856)"><path style="opacity: 1; fill: rgb(255, 240, 176);" d="M 392.5,329.5 C 407.041,354.953 416.541,382.286 421,411.5C 428.869,462.345 426.536,512.678 414,562.5C 407.028,589.443 395.028,613.777 378,635.5C 349.229,668.317 313.062,682.483 269.5,678C 255.33,676.959 241.996,673.125 229.5,666.5C 290.143,592.186 350.81,517.852 411.5,443.5C 382.462,439.019 353.462,434.352 324.5,429.5C 346.834,395.852 369.501,362.519 392.5,329.5 Z"/></g><g transform="matrix(1, 0, 0, 1, -371.305702, -410.680856)"><path style="opacity:1" fill="#64bf9e" d="M 977.5,407.5 C 994.854,404.625 1009.69,409.291 1022,421.5C 1029.26,436.059 1026.09,447.892 1012.5,457C 995.627,464.565 978.96,464.231 962.5,456C 949.297,445.811 947.13,433.644 956,419.5C 962.287,413.777 969.453,409.777 977.5,407.5 Z"/></g><g transform="matrix(1, 0, 0, 1, -371.305702, -410.680856)"><path style="opacity:1" fill="#63bf9e" d="M 735.5,427.5 C 736.5,427.5 737.5,427.5 738.5,427.5C 738.5,449.167 738.5,470.833 738.5,492.5C 747.608,492.057 756.608,492.557 765.5,494C 766,494.5 766.5,495 767,495.5C 767.667,506.833 767.667,518.167 767,529.5C 766.167,530.333 765.333,531.167 764.5,532C 755.84,532.5 747.173,532.666 738.5,532.5C 738.667,568.502 738.5,604.502 738,640.5C 737.167,642 736,643.167 734.5,644C 720.167,644.667 705.833,644.667 691.5,644C 690.069,643.535 688.903,642.701 688,641.5C 687.5,605.168 687.333,568.835 687.5,532.5C 678.827,532.666 670.16,532.5 661.5,532C 660.667,531.167 659.833,530.333 659,529.5C 658.333,518.167 658.333,506.833 659,495.5C 659.5,495 660,494.5 660.5,494C 669.392,492.557 678.392,492.057 687.5,492.5C 687.227,458.681 703.227,437.014 735.5,427.5 Z"/></g><g transform="matrix(1, 0, 0, 1, -371.305702, -410.680856)"><path style="opacity:1" fill="#64bf9e" d="M 531.5,489.5 C 550.787,492.629 565.287,502.629 575,519.5C 586.503,496.663 605.003,486.83 630.5,490C 633.22,490.723 635.387,492.223 637,494.5C 637.667,508.5 637.667,522.5 637,536.5C 635.426,537.848 633.593,538.514 631.5,538.5C 621.54,536.076 611.54,535.91 601.5,538C 592.48,542.523 586.646,549.69 584,559.5C 583.667,586.167 583.333,612.833 583,639.5C 582.065,642.102 580.232,643.602 577.5,644C 563.5,644.667 549.5,644.667 535.5,644C 533.68,643.021 532.513,641.521 532,639.5C 531.5,589.501 531.333,539.501 531.5,489.5 Z"/></g><g transform="matrix(1, 0, 0, 1, -371.305702, -410.680856)"><path style="opacity:1" fill="#63bf9e" d="M 965.5,489.5 C 994.435,495.602 1011.27,513.269 1016,542.5C 1016.67,575.167 1016.67,607.833 1016,640.5C 1014.83,641.667 1013.67,642.833 1012.5,644C 997.833,644.667 983.167,644.667 968.5,644C 967.667,643.167 966.833,642.333 966,641.5C 965.5,590.834 965.333,540.168 965.5,489.5 Z"/></g><g transform="matrix(1, 0, 0, 1, -371.305702, -410.680856)"><path style="opacity:1" fill="#64bf9e" d="M 864.5,602.5 C 889.114,602.848 914.114,603.848 939.5,605.5C 934.726,624.107 923.06,635.941 904.5,641C 898.553,642.32 892.553,643.32 886.5,644C 852.5,644.667 818.5,644.667 784.5,644C 782.009,641.032 781.843,637.865 784,634.5C 808.289,600.755 832.456,566.921 856.5,533C 833.412,532.98 810.412,532.313 787.5,531C 786.667,530.167 785.833,529.333 785,528.5C 784.333,517.5 784.333,506.5 785,495.5C 785.903,494.299 787.069,493.465 788.5,493C 835.167,492.333 881.833,492.333 928.5,493C 931.379,494.666 932.212,497.166 931,500.5C 908.564,534.386 886.397,568.386 864.5,602.5 Z"/></g><g transform="matrix(1, 0, 0, 1, -371.305702, -410.680856)"><path style="opacity:1" fill="#d7eee6" d="M 864.5,602.5 C 889.833,602.5 915.167,602.5 940.5,602.5C 940.737,603.791 940.404,604.791 939.5,605.5C 914.114,603.848 889.114,602.848 864.5,602.5 Z"/></g><g transform="matrix(1, 0, 0, 1, -371.305702, -410.680856)"><path style="opacity:1" fill="#49c6cb" d="M 182.5,671.5 C 193.93,676.726 205.597,681.059 217.5,684.5C 216.448,684.351 215.448,684.517 214.5,685C 154,758.833 93.5,832.667 33,906.5C 82.2734,827.988 132.107,749.654 182.5,671.5 Z"/></g></svg>