<?xml version="1.0" encoding="utf-8"?>
<svg xmlns="http://www.w3.org/2000/svg" viewBox="-355.153 -252.013 518.077 754.14" style="shape-rendering: geometricprecision;" xmlns:bx="https://boxy-svg.com" width="518.077px" height="754.14px"><defs><bx:export><bx:file format="svg"/></bx:export></defs><g transform="matrix(1, 0, 0, 1, -371.305702, -410.680856)"><path style="opacity: 1; fill-rule: evenodd;" fill="#49c6cb" d="M 418.5,291.5 C 409.301,284.734 399.634,278.734 389.5,273.5C 428.102,237.066 466.269,200.066 504,162.5C 504.667,163.167 504.667,163.833 504,164.5C 474.861,206.46 446.361,248.793 418.5,291.5 Z"/></g><g transform="matrix(1, 0, 0, 1, -371.305702, -410.680856)"><path style="opacity: 1; fill: rgb(0, 157, 101);" d="M 389.5,273.5 C 399.634,278.734 409.301,284.734 418.5,291.5C 468.246,330.97 496.079,382.636 502,446.5C 506.777,495.412 498.11,541.745 476,585.5C 439.005,649.284 383.505,684.784 309.5,692C 278.353,694.671 247.686,692.171 217.5,684.5C 205.597,681.059 193.93,676.726 182.5,671.5C 126.693,642.965 90.5268,598.299 74,537.5C 57.1682,474.164 63.8349,413.497 94,355.5C 132.024,292.2 188.191,257.367 262.5,251C 306.798,247.873 349.132,255.373 389.5,273.5 Z"/></g><g transform="matrix(1, 0, 0, 1, -371.305702, -410.680856)"><path style="opacity: 1; fill: rgb(255, 240, 176);" d="M 366.5,296.5 C 300.367,361.799 234.033,426.966 167.5,492C 206.478,498.774 245.478,505.441 284.5,512C 256.281,556.28 227.947,600.446 199.5,644.5C 183.231,628.688 171.065,610.022 163,588.5C 149.245,550.219 142.745,510.719 143.5,470C 141.934,421.154 152.101,374.988 174,331.5C 211.5,270.773 264.333,251.606 332.5,274C 345.444,279.289 356.777,286.789 366.5,296.5 Z"/></g><g transform="matrix(1, 0, 0, 1, -371.305702, -410.680856)"><path style="opacity:1" fill="#47c6cb" d="M 366.5,296.5 C 376.843,306.189 385.51,317.189 392.5,329.5C 369.501,362.519 346.834,395.852 324.5,429.5C 353.462,434.352 382.462,439.019 411.5,443.5C 350.81,517.852 290.143,592.186 229.5,666.5C 218.072,661.066 208.072,653.733 199.5,644.5C 227.947,600.446 256.281,556.28 284.5,512C 245.478,505.441 206.478,498.774 167.5,492C 234.033,426.966 300.367,361.799 366.5,296.5 Z"/></g><g transform="matrix(1, 0, 0, 1, -371.305702, -410.680856)"><path style="opacity: 1; fill: rgb(255, 240, 176);" d="M 392.5,329.5 C 407.041,354.953 416.541,382.286 421,411.5C 428.869,462.345 426.536,512.678 414,562.5C 407.028,589.443 395.028,613.777 378,635.5C 349.229,668.317 313.062,682.483 269.5,678C 255.33,676.959 241.996,673.125 229.5,666.5C 290.143,592.186 350.81,517.852 411.5,443.5C 382.462,439.019 353.462,434.352 324.5,429.5C 346.834,395.852 369.501,362.519 392.5,329.5 Z"/></g><g transform="matrix(1, 0, 0, 1, -371.305702, -410.680856)"><path style="opacity:1" fill="#49c6cb" d="M 182.5,671.5 C 193.93,676.726 205.597,681.059 217.5,684.5C 216.448,684.351 215.448,684.517 214.5,685C 154,758.833 93.5,832.667 33,906.5C 82.2734,827.988 132.107,749.654 182.5,671.5 Z"/></g></svg>